HIERARCHY
ROOT ui
{
	 OFFSET 0 0 0
	 CHANNELS 3 XPosition YPosition Z Position
	 EndSite
	 {
	 OFFSET 0 -1 0
	 }
}
ROOT li
{
	 OFFSET 0 0 0
	 CHANNELS 3 XPosition YPosition Z Position
	 EndSite
	 {
	 OFFSET 0 -1 0
	 }
}
ROOT ul
{
	 OFFSET 0 0 0
	 CHANNELS 3 XPosition YPosition Z Position
	 EndSite
	 {
	 OFFSET 0 -1 0
	 }
}
ROOT ll
{
	 OFFSET 0 0 0
	 CHANNELS 3 XPosition YPosition Z Position
	 EndSite
	 {
	 OFFSET 0 -1 0
	 }
}
ROOT tt
{
	 OFFSET 0 0 0
	 CHANNELS 3 XPosition YPosition Z Position
	 EndSite
	 {
	 OFFSET 0 -1 0
	 }
}
ROOT tb
{
	 OFFSET 0 0 0
	 CHANNELS 3 XPosition YPosition Z Position
	 EndSite
	 {
	 OFFSET 0 -1 0
	 }
}
ROOT td
{
	 OFFSET 0 0 0
	 CHANNELS 3 XPosition YPosition Z Position
	 EndSite
	 {
	 OFFSET 0 -1 0
	 }
}
ROOT v
{
	 OFFSET 0 0 0
	 CHANNELS 3 XPosition YPosition Z Position
	 EndSite
	 {
	 OFFSET 0 -1 0
	 }
}
ROOT bn
{
	 OFFSET 0 0 0
	 CHANNELS 3 XPosition YPosition Z Position
	 EndSite
	 {
	 OFFSET 0 -1 0
	 }
}
MOTION
Frames: 13
Frame Time: 0.002
0.02227828788757324	-0.006776007175445556	0		0.49603271484375	-2.42053955078125	0		-0.989101318359375	0.33520547485351565	0		-0.5660801391601562	-2.783925537109375	0		1.6354970703125	-0.5820802612304687	0		3.28827099609375	-0.029822786331176757	0		4.42054248046875	-0.0904448471069336	0		5.98620751953125	0.38200643920898436	0		-0.001111314058303833	5.9831162109375	0		
-0.03349114608764649	0.01028236961364746	0		0.4871395263671875	-2.412130615234375	0		-0.9890955200195313	0.33549655151367186	0		-0.5331580200195313	-2.7890908203125	0		1.63549951171875	-0.5817988891601562	0		3.280986328125	-0.050448925018310546	0		4.41164404296875	-0.08305023956298828	0		5.98232421875	0.39032620239257815	0		-0.001084710955619812	5.98340380859375	0		
0.020441471099853517	0.008882139205932617	0		0.5219002685546875	-2.425269287109375	0		-0.9141500244140625	0.33480963134765623	0		-0.538298095703125	-2.7946748046875	0		1.652392333984375	-0.58569384765625	0		3.30812841796875	-0.03648910903930664	0		4.411595703125	-0.08272029876708985	0		5.98616650390625	0.382596435546875	0		0.03296640014648437	5.98927880859375	0		
-8.241819739341735E-4	-0.0024301190376281737	0		0.5146954345703125	-2.431776611328125	0		-0.9193058471679687	0.3312784118652344	0		-0.5027013244628906	-2.815771240234375	0		1.6292493896484375	-0.5879839477539063	0		3.28294580078125	-0.0417559928894043	0		4.39849462890625	-0.08215648651123048	0		5.98118994140625	0.3920445556640625	0		-0.0011983519792556762	5.9841455078125	0		
-0.005021471977233887	-0.004932015895843506	0		0.48553662109375	-2.430934814453125	0		-0.9244057006835937	0.3357916564941406	0		-0.5449287109375	-2.819747314453125	0		1.65095166015625	-0.59784765625	0		3.28472021484375	-0.04634769058227539	0		4.4083232421875	-0.08286143493652344	0		5.97691064453125	0.3835301513671875	0		-0.0013415449857711792	5.984587890625	0		
-0.014107583045959472	0.0046731858253479	0		0.49218307495117186	-2.440549560546875	0		-0.9146173706054688	0.33613677978515627	0		-0.5294494018554687	-2.8414833984375	0		1.6446297607421876	-0.60528466796875	0		3.283398681640625	-0.053856216430664065	0		4.39029296875	-0.0691389389038086	0		5.9777001953125	0.3839892578125	0		0.016578699111938478	5.9938203125	0		
0.0065278301239013676	-0.0021014249324798583	0		0.5048587951660156	-2.44421435546875	0		-0.9098283081054688	0.3405827331542969	0		-0.529717529296875	-2.840968505859375	0		1.6523349609375	-0.606881591796875	0		3.28340869140625	-0.03334599685668945	0		4.41602490234375	-0.06898662567138672	0		5.98543359375	0.38438885498046876	0		0.01630354118347168	5.9933349609375	0		
0.0022779989242553713	0.0034944310188293457	0		0.5264130249023438	-2.45297607421875	0		-0.9152022705078126	0.33719329833984374	0		-0.5042189331054687	-2.853784912109375	0		1.6489744873046874	-0.6092988891601563	0		3.254774658203125	-0.05541634750366211	0		4.41570556640625	-0.0684458236694336	0		5.99000341796875	0.37686126708984374	0		-0.002124021053314209	5.98612548828125	0		
-0.015063437461853027	0.00628980016708374	0		0.49400531005859377	-2.454972900390625	0		-0.9205174560546875	0.3418223266601563	0		-0.51269775390625	-2.86111328125	0		1.6455491943359375	-0.6126953125	0		3.27558154296875	-0.04214488983154297	0		4.38933740234375	-0.06752362823486328	0		5.9896328125	0.3774253845214844	0		-0.0015256290435791016	5.9846728515625	0		
-0.0016776909828186035	-0.007328800201416016	0		0.553347900390625	-2.4722255859375	0		-0.9259921875	0.33846408081054685	0		-0.5113630065917969	-2.87856640625	0		1.6420753173828124	-0.6160784301757812	0		3.27906494140625	-0.04862260055541992	0		4.38891748046875	-0.06694560241699218	0		5.9841025390625	0.37007489013671874	0		-0.01710207748413086	5.9744541015625	0		
-0.002142549991607666	-0.006750440120697022	0		0.497961181640625	-2.4658876953125	0		-0.9164585571289062	0.3389029541015625	0		-0.5148782348632812	-2.881947021484375	0		1.6554996337890624	-0.62368994140625	0		3.265711669921875	-0.03986038589477539	0		4.385439453125	-0.06731880950927735	0		5.97585888671875	0.3867716064453125	0		-0.0014398670196533203	5.984810546875	0		
-0.0035371179580688476	0.0018391319513320922	0		0.5612759399414062	-2.479192138671875	0		-0.91696435546875	0.33947750854492187	0		-0.5065159606933594	-2.891494873046875	0		1.662967529296875	-0.6252200317382812	0		3.263930908203125	-0.05926105880737305	0		4.38794775390625	-0.06577426147460938	0		5.9882412109375	0.37918243408203123	0		-0.001957932949066162	5.98538720703125	0		
-0.0031870810985565184	-0.005605075836181641	0		0.5297051391601563	-2.481193603515625	0		-0.9224491577148437	0.3441123046875	0		-0.47034039306640624	-2.91243603515625	0		1.659375	-0.6286046142578126	0		3.2695703125	-0.045766834259033204	0		4.37441015625	-0.06501338958740234	0		5.9828115234375	0.3878367919921875	0		0.03156488037109375	5.991486328125	0		
